# xmcd
#
# Track frame offsets:
# 150
# 4613
# 6823
# 34592
# 36041
# 39655
# 50996
# 53719
# 69143
# 70941
# 92447
# 95050
# 124606
# 133900
# 135796
# 145298
# 157795
# 169947
# 174439
# 185132
#
# Disc length: 2646 seconds
#
# Revision: 0
# Processed by: cddbd v1.4PL0 Copyright (c) Steve Scherf et al.
# Submitted via: Audion 3.0.2 (http://www.panic.com/audion/)
#
DISCID=090a5414
DTITLE=Matt Clark - Matt Clark is Dead - The Sketches
DYEAR=1900
DGENRE=
TTITLE0=Get in the Truck Now
TTITLE1=Venus
TTITLE2=Puppet Fight
TTITLE3=Drunk On Czech Beer
TTITLE4=Superpussey
TTITLE5=Renata is Late
TTITLE6=Prince
TTITLE7=Syrupy or Sappy?
TTITLE8=Funksperiment
TTITLE9=Sound of Wood
TTITLE10=Beat No. 6
TTITLE11=Food Versus Evil
TTITLE12=Kimsleeping
TTITLE13=Tynuk
TTITLE14=Wind-up Clown
TTITLE15=The Queen Applies to College
TTITLE16=Screan
TTITLE17=Hungry
TTITLE18=Brotherly Love
TTITLE19=Annex
EXTD=
EXTT0=
EXTT1=
EXTT2=
EXTT3=
EXTT4=
EXTT5=
EXTT6=
EXTT7=
EXTT8=
EXTT9=
EXTT10=
EXTT11=
EXTT12=
EXTT13=
EXTT14=
EXTT15=
EXTT16=
EXTT17=
EXTT18=
EXTT19=
PLAYORDER=
